<svg class="diagram-root" style="background: #f5f6f6" xmlns="http://www.w3.org/2000/svg" xmlns:xlink="http://www.w3.org/1999/xlink"><style>.diagram-root { font-family: "Helvetica Neue", sans-serif; font-size: 12px; } .t { overflow: visible; } .t-bg { y: 40; fill: #fff;   } .th { fill: #005aa0;   } .tht { fill: #fff; font-size: 14px;  } .tf { fill: #323c46; overflow: visible; } .tf.pk { fill: #005aa0; font-weight: bold; } .tf.fk { font-weight: bold; } .ty { fill: #adb1b5; font-weight: normal; text-anchor: end; } .r { fill: transparent; stroke: #c3c3c3; stroke-width: 1; } .l { stroke: 1; } .i { fill: #c2c7ce; stroke: #c2c7ce; } .i.ix { fill: #afb3b6; stroke: #000; } .fa { fill: transparent; overflow: visible; } .fa .bg.hover { fill: #f7f7f7; } .c { cy: 12; r: 4; stroke: #d2d2dc; fill: #d2d2dc; } .hr { fill: transparent; stroke: #323c46; stroke-opacity: 0.035; stroke-width: 13; } .dc { stroke: #fa5a3c; fill: #fa5a3c; } .x { stroke: white; stroke-width: 1; } .hl .th { fill: #1b9bff; } .hl .tht {  } .fhl .bg { fill: #e7f4ff; } .fhls .bg {  } .r.hl { stroke: #1b9bff; } .dim { opacity: 0.25; }</style><g class="drawing-wrapper" transform="translate(2, 31.666666666666636) scale(1,1)"><g class="rs"><path d="M 317.3333333333333 246.6666666666668 m -1, 0 a 1,1 0 1,0 2,0 a 1,1 0 1,0 -2,0 M 317.3333333333333 246.6666666666668 m -0.5, 0 a 0.5,0.5 0 1,0 1,0 a 0.5,0.5 0 1,0 -1,0  M317.3333333333333 246.6666666666668 L317.3333333333333 246.6666666666668 305.3333333333333 246.6666666666668 M 317.3333333333333 252.6666666666668 m -1, 0 a 1,1 0 1,0 2,0 a 1,1 0 1,0 -2,0 M 317.3333333333333 252.6666666666668 m -0.5, 0 a 0.5,0.5 0 1,0 1,0 a 0.5,0.5 0 1,0 -1,0  M317.3333333333333 252.6666666666668 L317.3333333333333 252.6666666666668 310.3333333333333 246.6666666666668 317.3333333333333 240.6666666666668 M 317.3333333333333 240.6666666666668 m -1, 0 a 1,1 0 1,0 2,0 a 1,1 0 1,0 -2,0 M 317.3333333333333 240.6666666666668 m -0.5, 0 a 0.5,0.5 0 1,0 1,0 a 0.5,0.5 0 1,0 -1,0  M305.3333333333333 246.6666666666668 Q 286.02 246.6666666666668, 266.71 166.83 T 228.08 87 M 216.08 87 m -1, 0 a 1,1 0 1,0 2,0 a 1,1 0 1,0 -2,0 M 216.08 87 m -0.5, 0 a 0.5,0.5 0 1,0 1,0 a 0.5,0.5 0 1,0 -1,0  M216.08 87 L216.08 87 228.08 87 M222.08 93 L222.08 93 222.08 81" id="h3487364663" class="r"></path><path d="M 428.94 271.6666666666668 m -1, 0 a 1,1 0 1,0 2,0 a 1,1 0 1,0 -2,0 M 428.94 271.6666666666668 m -0.5, 0 a 0.5,0.5 0 1,0 1,0 a 0.5,0.5 0 1,0 -1,0  M428.94 271.6666666666668 L428.94 271.6666666666668 440.94 271.6666666666668 M 428.94 277.6666666666668 m -1, 0 a 1,1 0 1,0 2,0 a 1,1 0 1,0 -2,0 M 428.94 277.6666666666668 m -0.5, 0 a 0.5,0.5 0 1,0 1,0 a 0.5,0.5 0 1,0 -1,0  M428.94 277.6666666666668 L428.94 277.6666666666668 435.94 271.6666666666668 428.94 265.6666666666668 M 428.94 265.6666666666668 m -1, 0 a 1,1 0 1,0 2,0 a 1,1 0 1,0 -2,0 M 428.94 265.6666666666668 m -0.5, 0 a 0.5,0.5 0 1,0 1,0 a 0.5,0.5 0 1,0 -1,0  M440.94 271.6666666666668 Q 456.54 271.6666666666668, 472.14 263.33 T 503.3333333333336 255.0000000000002 M 515.3333333333336 255.0000000000002 m -1, 0 a 1,1 0 1,0 2,0 a 1,1 0 1,0 -2,0 M 515.3333333333336 255.0000000000002 m -0.5, 0 a 0.5,0.5 0 1,0 1,0 a 0.5,0.5 0 1,0 -1,0  M515.3333333333336 255.0000000000002 L515.3333333333336 255.0000000000002 503.3333333333336 255.0000000000002 M509.3333333333336 261.0000000000002 L509.3333333333336 261.0000000000002 509.3333333333336 249.0000000000002" id="h4016532628" class="r"></path><path d="M 321.66666666666583 95.33333333333329 m -1, 0 a 1,1 0 1,0 2,0 a 1,1 0 1,0 -2,0 M 321.66666666666583 95.33333333333329 m -0.5, 0 a 0.5,0.5 0 1,0 1,0 a 0.5,0.5 0 1,0 -1,0  M321.66666666666583 95.33333333333329 L321.66666666666583 95.33333333333329 309.66666666666583 95.33333333333329 M 321.66666666666583 101.33333333333329 m -1, 0 a 1,1 0 1,0 2,0 a 1,1 0 1,0 -2,0 M 321.66666666666583 101.33333333333329 m -0.5, 0 a 0.5,0.5 0 1,0 1,0 a 0.5,0.5 0 1,0 -1,0  M321.66666666666583 101.33333333333329 L321.66666666666583 101.33333333333329 314.66666666666583 95.33333333333329 321.66666666666583 89.33333333333329 M 321.66666666666583 89.33333333333329 m -1, 0 a 1,1 0 1,0 2,0 a 1,1 0 1,0 -2,0 M 321.66666666666583 89.33333333333329 m -0.5, 0 a 0.5,0.5 0 1,0 1,0 a 0.5,0.5 0 1,0 -1,0  M309.66666666666583 95.33333333333329 Q 289.27 95.33333333333329, 268.87 91.17 T 228.08 87 M 216.08 87 m -1, 0 a 1,1 0 1,0 2,0 a 1,1 0 1,0 -2,0 M 216.08 87 m -0.5, 0 a 0.5,0.5 0 1,0 1,0 a 0.5,0.5 0 1,0 -1,0  M216.08 87 L216.08 87 228.08 87 M222.08 93 L222.08 93 222.08 81" id="h1335590994" class="r"></path><path d="M 424.71 120.33333333333329 m -1, 0 a 1,1 0 1,0 2,0 a 1,1 0 1,0 -2,0 M 424.71 120.33333333333329 m -0.5, 0 a 0.5,0.5 0 1,0 1,0 a 0.5,0.5 0 1,0 -1,0  M424.71 120.33333333333329 L424.71 120.33333333333329 436.71 120.33333333333329 M 424.71 126.33333333333329 m -1, 0 a 1,1 0 1,0 2,0 a 1,1 0 1,0 -2,0 M 424.71 126.33333333333329 m -0.5, 0 a 0.5,0.5 0 1,0 1,0 a 0.5,0.5 0 1,0 -1,0  M424.71 126.33333333333329 L424.71 126.33333333333329 431.71 120.33333333333329 424.71 114.33333333333329 M 424.71 114.33333333333329 m -1, 0 a 1,1 0 1,0 2,0 a 1,1 0 1,0 -2,0 M 424.71 114.33333333333329 m -0.5, 0 a 0.5,0.5 0 1,0 1,0 a 0.5,0.5 0 1,0 -1,0  M436.71 120.33333333333329 Q 454.12 120.33333333333329, 471.52 94.5 T 506.33333333333394 68.66666666666666 M 518.3333333333339 68.66666666666666 m -1, 0 a 1,1 0 1,0 2,0 a 1,1 0 1,0 -2,0 M 518.3333333333339 68.66666666666666 m -0.5, 0 a 0.5,0.5 0 1,0 1,0 a 0.5,0.5 0 1,0 -1,0  M518.3333333333339 68.66666666666666 L518.3333333333339 68.66666666666666 506.33333333333394 68.66666666666666 M512.3333333333339 74.66666666666666 L512.3333333333339 74.66666666666666 512.3333333333339 62.66666666666666" id="h1313037754" class="r"></path></g><g class="hrs"></g><g class="ts"><svg width="186.08" height="275" x="30" y="30" id="h2730007526" class="t"><rect height="40" width="186.08" class="th"></rect><text x="13" y="25" class="tht">entries</text><rect height="235" width="186.08" class="t-bg"></rect><text x="13" y="61" class="tf pk">id<tspan x="173.08" class="ty">int</tspan></text><path d="M7,14A2,2 0 0,1 5,12A2,2 0 0,1 7,10A2,2 0 0,1 9,12A2,2 0 0,1 7,14M12.65,10C11.83,7.67 9.61,6 7, 6A6, 6 0 0, 0 1, 12A6, 6 0 0, 0 7, 18C9.61, 18 11.83, 16.33 12.65, 14H17V18H21V14H23V10H12.65Z" class="i pk" transform="translate(140.406171875, 48) scale(0.65)"></path><text x="13" y="86" class="tf">name<tspan x="173.08" class="ty">string</tspan></text><text x="13" y="111" class="tf">espn_score<tspan x="173.08" class="ty">int</tspan></text><text x="13" y="136" class="tf">espn_percentile<tspan x="173.08" class="ty">int</tspan></text><text x="13" y="161" class="tf">predicted_score_winner<tspan x="173.08" class="ty">int</tspan></text><text x="13" y="186" class="tf">predicted_score_loser<tspan x="173.08" class="ty">int</tspan></text><text x="13" y="211" class="tf">team_1_wins<tspan x="173.08" class="ty">int</tspan></text><text x="13" y="236" class="tf">team_n_wins<tspan x="173.08" class="ty">int</tspan></text><text x="13" y="261" class="tf">team_68_wins<tspan x="173.08" class="ty">int</tspan></text></svg><svg width="103.04" height="125" x="321.66666666666583" y="13.333333333333282" id="h2518296337" class="t"><rect height="40" width="103.04" class="th"></rect><text x="13" y="25" class="tht">user_entries</text><rect height="85" width="103.04" class="t-bg"></rect><text x="13" y="61" class="tf pk">id<tspan x="90.04" class="ty">int</tspan></text><path d="M7,14A2,2 0 0,1 5,12A2,2 0 0,1 7,10A2,2 0 0,1 9,12A2,2 0 0,1 7,14M12.65,10C11.83,7.67 9.61,6 7, 6A6, 6 0 0, 0 1, 12A6, 6 0 0, 0 7, 18C9.61, 18 11.83, 16.33 12.65, 14H17V18H21V14H23V10H12.65Z" class="i pk" transform="translate(57.366171875000006, 48) scale(0.65)"></path><text x="13" y="86" class="tf fk">entry_id<tspan x="90.04" class="ty">int</tspan></text><text x="13" y="111" class="tf fk">user_id<tspan x="90.04" class="ty">int</tspan></text></svg><svg width="105.36" height="100" x="518.3333333333339" y="11.666666666666655" id="h2948373614" class="t"><rect height="40" width="105.36" class="th"></rect><text x="13" y="25" class="tht">users</text><rect height="60" width="105.36" class="t-bg"></rect><text x="13" y="61" class="tf pk">id<tspan x="92.36" class="ty">int</tspan></text><path d="M7,14A2,2 0 0,1 5,12A2,2 0 0,1 7,10A2,2 0 0,1 9,12A2,2 0 0,1 7,14M12.65,10C11.83,7.67 9.61,6 7, 6A6, 6 0 0, 0 1, 12A6, 6 0 0, 0 7, 18C9.61, 18 11.83, 16.33 12.65, 14H17V18H21V14H23V10H12.65Z" class="i pk" transform="translate(59.686171875, 48) scale(0.65)"></path><text x="13" y="86" class="tf">name<tspan x="92.36" class="ty">string</tspan></text></svg><svg width="111.61" height="125" x="317.3333333333333" y="164.6666666666668" id="h1694178825" class="t"><rect height="40" width="111.61" class="th"></rect><text x="13" y="25" class="tht">group_entries</text><rect height="85" width="111.61" class="t-bg"></rect><text x="13" y="61" class="tf pk">id<tspan x="98.61" class="ty">int</tspan></text><path d="M7,14A2,2 0 0,1 5,12A2,2 0 0,1 7,10A2,2 0 0,1 9,12A2,2 0 0,1 7,14M12.65,10C11.83,7.67 9.61,6 7, 6A6, 6 0 0, 0 1, 12A6, 6 0 0, 0 7, 18C9.61, 18 11.83, 16.33 12.65, 14H17V18H21V14H23V10H12.65Z" class="i pk" transform="translate(65.936171875, 48) scale(0.65)"></path><text x="13" y="86" class="tf fk">entry_id<tspan x="98.61" class="ty">int</tspan></text><text x="13" y="111" class="tf fk">group_id<tspan x="98.61" class="ty">int</tspan></text></svg><svg width="105.36" height="100" x="515.3333333333336" y="198.0000000000002" id="h2118632447" class="t"><rect height="40" width="105.36" class="th"></rect><text x="13" y="25" class="tht">groups</text><rect height="60" width="105.36" class="t-bg"></rect><text x="13" y="61" class="tf pk">id<tspan x="92.36" class="ty">int</tspan></text><path d="M7,14A2,2 0 0,1 5,12A2,2 0 0,1 7,10A2,2 0 0,1 9,12A2,2 0 0,1 7,14M12.65,10C11.83,7.67 9.61,6 7, 6A6, 6 0 0, 0 1, 12A6, 6 0 0, 0 7, 18C9.61, 18 11.83, 16.33 12.65, 14H17V18H21V14H23V10H12.65Z" class="i pk" transform="translate(59.686171875, 48) scale(0.65)"></path><text x="13" y="86" class="tf">name<tspan x="92.36" class="ty">string</tspan></text></svg><svg width="130.72" height="350" x="705.0000000000002" y="-1.6666666666666352" id="h2129428134" class="t"><rect height="40" width="130.72" class="th"></rect><text x="13" y="25" class="tht">teams</text><rect height="310" width="130.72" class="t-bg"></rect><text x="13" y="61" class="tf pk">id<tspan x="117.72" class="ty">int</tspan></text><path d="M7,14A2,2 0 0,1 5,12A2,2 0 0,1 7,10A2,2 0 0,1 9,12A2,2 0 0,1 7,14M12.65,10C11.83,7.67 9.61,6 7, 6A6, 6 0 0, 0 1, 12A6, 6 0 0, 0 7, 18C9.61, 18 11.83, 16.33 12.65, 14H17V18H21V14H23V10H12.65Z" class="i pk" transform="translate(85.046171875, 48) scale(0.65)"></path><text x="13" y="86" class="tf">name<tspan x="117.72" class="ty">string</tspan></text><text x="13" y="111" class="tf">region<tspan x="117.72" class="ty">string</tspan></text><text x="13" y="136" class="tf">seed<tspan x="117.72" class="ty">int</tspan></text><text x="13" y="161" class="tf">elo<tspan x="117.72" class="ty">int</tspan></text><text x="13" y="186" class="tf">pick_rate_1<tspan x="117.72" class="ty">float</tspan></text><text x="13" y="211" class="tf">pick_rate_2<tspan x="117.72" class="ty">float</tspan></text><text x="13" y="236" class="tf">pick_rate_3<tspan x="117.72" class="ty">float</tspan></text><text x="13" y="261" class="tf">pick_rate_4<tspan x="117.72" class="ty">float</tspan></text><text x="13" y="286" class="tf">pick_rate_5<tspan x="117.72" class="ty">float</tspan></text><text x="13" y="311" class="tf">pick_rate_6<tspan x="117.72" class="ty">float</tspan></text><text x="13" y="336" class="tf">pick_rate_7<tspan x="117.72" class="ty">float</tspan></text></svg></g></g><text class="qdbd-link" x="10" y="20">www.quickdatabasediagrams.com</text></svg>